<svg width="14" height="15" viewBox="0 0 14 15" fill="none" xmlns="http://www.w3.org/2000/svg">
<path d="M10 5.93266L4 2.47266" stroke="#1F86FF" stroke-linecap="round" stroke-linejoin="round"/>
<path d="M13 10.332V4.99863C12.9998 4.76482 12.938 4.53517 12.821 4.33274C12.704 4.13031 12.5358 3.96221 12.3333 3.8453L7.66667 1.17863C7.46397 1.06161 7.23405 1 7 1C6.76595 1 6.53603 1.06161 6.33333 1.17863L1.66667 3.8453C1.46418 3.96221 1.29599 4.13031 1.17897 4.33274C1.06196 4.53517 1.00024 4.76482 1 4.99863V10.332C1.00024 10.5658 1.06196 10.7954 1.17897 10.9979C1.29599 11.2003 1.46418 11.3684 1.66667 11.4853L6.33333 14.152C6.53603 14.269 6.76595 14.3306 7 14.3306C7.23405 14.3306 7.46397 14.269 7.66667 14.152L12.3333 11.4853C12.5358 11.3684 12.704 11.2003 12.821 10.9979C12.938 10.7954 12.9998 10.5658 13 10.332Z" stroke="#1F86FF" stroke-linecap="round" stroke-linejoin="round"/>
<path d="M1.17993 4.30469L6.99993 7.67135L12.8199 4.30469" stroke="#1F86FF" stroke-linecap="round" stroke-linejoin="round"/>
<path d="M7 14.3841V7.66406" stroke="#1F86FF" stroke-linecap="round" stroke-linejoin="round"/>
</svg>
